<mxfile host="app.diagrams.net" modified="2023-12-08T13:54:13.061Z" agent="Mozilla/5.0 (Windows NT 10.0; Win64; x64) AppleWebKit/537.36 (KHTML, like Gecko) Chrome/120.0.0.0 Safari/537.36" etag="yji5nU9XpU4KFgpxRHPk" version="22.1.7" type="device">
  <diagram name="Page-1" id="b3tc0pRuWGflE5XBi_cO">
    <mxGraphModel dx="744" dy="410" grid="1" gridSize="10" guides="1" tooltips="1" connect="1" arrows="1" fold="1" page="1" pageScale="1" pageWidth="850" pageHeight="1100" math="0" shadow="0">
      <root>
        <mxCell id="0" />
        <mxCell id="1" parent="0" />
        <mxCell id="dH3-vCSbETo2mYFwOTPM-12" value="" style="whiteSpace=wrap;html=1;aspect=fixed;" vertex="1" parent="1">
          <mxGeometry x="140" y="410" width="120" height="120" as="geometry" />
        </mxCell>
        <mxCell id="dH3-vCSbETo2mYFwOTPM-1" value="Actor" style="shape=umlActor;verticalLabelPosition=bottom;verticalAlign=top;html=1;outlineConnect=0;" vertex="1" parent="1">
          <mxGeometry x="80" y="320" width="30" height="60" as="geometry" />
        </mxCell>
        <mxCell id="dH3-vCSbETo2mYFwOTPM-3" value="flask1" style="shape=cube;whiteSpace=wrap;html=1;boundedLbl=1;backgroundOutline=1;darkOpacity=0.05;darkOpacity2=0.1;fillColor=#f8cecc;strokeColor=#b85450;" vertex="1" parent="1">
          <mxGeometry x="160" y="200" width="120" height="80" as="geometry" />
        </mxCell>
        <mxCell id="dH3-vCSbETo2mYFwOTPM-23" style="edgeStyle=orthogonalEdgeStyle;rounded=0;orthogonalLoop=1;jettySize=auto;html=1;" edge="1" parent="1" source="dH3-vCSbETo2mYFwOTPM-4" target="dH3-vCSbETo2mYFwOTPM-22">
          <mxGeometry relative="1" as="geometry" />
        </mxCell>
        <mxCell id="dH3-vCSbETo2mYFwOTPM-4" value="fastapi" style="shape=cube;whiteSpace=wrap;html=1;boundedLbl=1;backgroundOutline=1;darkOpacity=0.05;darkOpacity2=0.1;fillColor=#dae8fc;strokeColor=#6c8ebf;" vertex="1" parent="1">
          <mxGeometry x="360" y="280" width="120" height="80" as="geometry" />
        </mxCell>
        <mxCell id="dH3-vCSbETo2mYFwOTPM-5" style="edgeStyle=orthogonalEdgeStyle;rounded=0;orthogonalLoop=1;jettySize=auto;html=1;entryX=0;entryY=0;entryDx=0;entryDy=60;entryPerimeter=0;" edge="1" parent="1" source="dH3-vCSbETo2mYFwOTPM-1" target="dH3-vCSbETo2mYFwOTPM-3">
          <mxGeometry relative="1" as="geometry" />
        </mxCell>
        <mxCell id="dH3-vCSbETo2mYFwOTPM-6" value="оплата" style="text;html=1;strokeColor=none;fillColor=none;align=center;verticalAlign=middle;whiteSpace=wrap;rounded=0;" vertex="1" parent="1">
          <mxGeometry x="80" y="240" width="60" height="30" as="geometry" />
        </mxCell>
        <mxCell id="dH3-vCSbETo2mYFwOTPM-7" style="edgeStyle=orthogonalEdgeStyle;rounded=0;orthogonalLoop=1;jettySize=auto;html=1;entryX=0.019;entryY=0.632;entryDx=0;entryDy=0;entryPerimeter=0;" edge="1" parent="1" source="dH3-vCSbETo2mYFwOTPM-3" target="dH3-vCSbETo2mYFwOTPM-4">
          <mxGeometry relative="1" as="geometry" />
        </mxCell>
        <mxCell id="dH3-vCSbETo2mYFwOTPM-8" style="edgeStyle=orthogonalEdgeStyle;rounded=0;orthogonalLoop=1;jettySize=auto;html=1;entryX=0.167;entryY=0.875;entryDx=0;entryDy=0;entryPerimeter=0;" edge="1" parent="1" source="dH3-vCSbETo2mYFwOTPM-1" target="dH3-vCSbETo2mYFwOTPM-3">
          <mxGeometry relative="1" as="geometry" />
        </mxCell>
        <mxCell id="dH3-vCSbETo2mYFwOTPM-9" value="новости" style="text;html=1;strokeColor=none;fillColor=none;align=center;verticalAlign=middle;whiteSpace=wrap;rounded=0;" vertex="1" parent="1">
          <mxGeometry x="180" y="330" width="60" height="30" as="geometry" />
        </mxCell>
        <mxCell id="dH3-vCSbETo2mYFwOTPM-10" value="node JS" style="shape=cube;whiteSpace=wrap;html=1;boundedLbl=1;backgroundOutline=1;darkOpacity=0.05;darkOpacity2=0.1;fillColor=#e1d5e7;strokeColor=#9673a6;" vertex="1" parent="1">
          <mxGeometry x="160" y="440" width="90" height="50" as="geometry" />
        </mxCell>
        <mxCell id="dH3-vCSbETo2mYFwOTPM-11" value="frontend" style="text;html=1;strokeColor=none;fillColor=none;align=center;verticalAlign=middle;whiteSpace=wrap;rounded=0;" vertex="1" parent="1">
          <mxGeometry x="170" y="410" width="60" height="30" as="geometry" />
        </mxCell>
        <mxCell id="dH3-vCSbETo2mYFwOTPM-13" value="" style="whiteSpace=wrap;html=1;aspect=fixed;" vertex="1" parent="1">
          <mxGeometry x="320" y="410" width="120" height="120" as="geometry" />
        </mxCell>
        <mxCell id="dH3-vCSbETo2mYFwOTPM-14" value="django" style="shape=cube;whiteSpace=wrap;html=1;boundedLbl=1;backgroundOutline=1;darkOpacity=0.05;darkOpacity2=0.1;fillColor=#e1d5e7;strokeColor=#9673a6;" vertex="1" parent="1">
          <mxGeometry x="340" y="440" width="90" height="50" as="geometry" />
        </mxCell>
        <mxCell id="dH3-vCSbETo2mYFwOTPM-15" value="backend" style="text;html=1;strokeColor=none;fillColor=none;align=center;verticalAlign=middle;whiteSpace=wrap;rounded=0;" vertex="1" parent="1">
          <mxGeometry x="350" y="410" width="60" height="30" as="geometry" />
        </mxCell>
        <mxCell id="dH3-vCSbETo2mYFwOTPM-16" style="edgeStyle=orthogonalEdgeStyle;rounded=0;orthogonalLoop=1;jettySize=auto;html=1;entryX=0;entryY=0;entryDx=0;entryDy=15;entryPerimeter=0;" edge="1" parent="1" source="dH3-vCSbETo2mYFwOTPM-1" target="dH3-vCSbETo2mYFwOTPM-10">
          <mxGeometry relative="1" as="geometry" />
        </mxCell>
        <mxCell id="dH3-vCSbETo2mYFwOTPM-17" value="postgres" style="shape=cylinder3;whiteSpace=wrap;html=1;boundedLbl=1;backgroundOutline=1;size=15;" vertex="1" parent="1">
          <mxGeometry x="370" y="500" width="60" height="80" as="geometry" />
        </mxCell>
        <mxCell id="dH3-vCSbETo2mYFwOTPM-18" value="redis" style="shape=cylinder3;whiteSpace=wrap;html=1;boundedLbl=1;backgroundOutline=1;size=15;" vertex="1" parent="1">
          <mxGeometry x="175" y="500" width="60" height="80" as="geometry" />
        </mxCell>
        <mxCell id="dH3-vCSbETo2mYFwOTPM-19" style="edgeStyle=orthogonalEdgeStyle;rounded=0;orthogonalLoop=1;jettySize=auto;html=1;entryX=1.004;entryY=0.484;entryDx=0;entryDy=0;entryPerimeter=0;" edge="1" parent="1" source="dH3-vCSbETo2mYFwOTPM-13" target="dH3-vCSbETo2mYFwOTPM-12">
          <mxGeometry relative="1" as="geometry" />
        </mxCell>
        <mxCell id="dH3-vCSbETo2mYFwOTPM-20" style="edgeStyle=orthogonalEdgeStyle;rounded=0;orthogonalLoop=1;jettySize=auto;html=1;entryX=-0.007;entryY=0.451;entryDx=0;entryDy=0;entryPerimeter=0;" edge="1" parent="1" source="dH3-vCSbETo2mYFwOTPM-12" target="dH3-vCSbETo2mYFwOTPM-13">
          <mxGeometry relative="1" as="geometry" />
        </mxCell>
        <mxCell id="dH3-vCSbETo2mYFwOTPM-21" value="http" style="text;html=1;strokeColor=none;fillColor=none;align=center;verticalAlign=middle;whiteSpace=wrap;rounded=0;" vertex="1" parent="1">
          <mxGeometry x="260" y="430" width="60" height="30" as="geometry" />
        </mxCell>
        <mxCell id="dH3-vCSbETo2mYFwOTPM-22" value="sanic" style="shape=cube;whiteSpace=wrap;html=1;boundedLbl=1;backgroundOutline=1;darkOpacity=0.05;darkOpacity2=0.1;fillColor=#fff2cc;strokeColor=#d6b656;" vertex="1" parent="1">
          <mxGeometry x="560" y="320" width="120" height="80" as="geometry" />
        </mxCell>
      </root>
    </mxGraphModel>
  </diagram>
</mxfile>
